<?xml version="1.0" encoding="UTF-8"?>
<svg width="100px" height="50px" viewBox="0 0 100 50" version="1.1" xmlns="http://www.w3.org/2000/svg" xmlns:xlink="http://www.w3.org/1999/xlink">
    <title>thermomax</title>
    <defs>
        <rect id="path-1" x="0" y="0" width="100" height="50"></rect>
    </defs>
    <g id="Page-1" stroke="none" stroke-width="1" fill="none" fill-rule="evenodd">
        <g id="thermomax">
            <mask id="mask-2" fill="white">
                <use xlink:href="#path-1"></use>
            </mask>
            <g id="Rectangle"></g>
            <g id="Group-5-Copy-9" mask="url(#mask-2)">
                <g transform="translate(2.500000, -18.000000)" id="Group">
                    <g id="Group" fill="#EC1D24" transform="translate(1.979167, 33.551356)">
                        <path d="M76.59375,14.9382269 L78.434375,17.9069769 L74.824375,17.9069769 L76.59375,14.9382269 Z M91.0416667,0 L91.0416667,17.9069769 L80.94,17.9069769 L77.9,13.4657269 L80.56,9.49947694 L78.196875,9.49947694 L76.653125,12.1119769 L75.085625,9.49947694 L72.663125,9.499 L72.663125,0 L91.0416667,0 Z M72.663125,9.533 L75.346875,13.4657269 L72.663125,17.512 L72.663125,9.533 Z" id="Combined-Shape"></path>
                        <path d="M4.465,17.9069769 L4.465,11.2332269 L6.84,11.2332269 L6.84,9.49947694 L0.059375,9.49947694 L0.059375,11.2332269 L2.434375,11.2332269 L2.434375,17.9069769 L4.465,17.9069769 Z M9.796875,17.9069769 L9.796875,14.3919769 L13.074375,14.3919769 L13.074375,17.9069769 L15.105,17.9069769 L15.105,9.49947694 L13.074375,9.49947694 L13.074375,12.6819769 L9.796875,12.6819769 L9.796875,9.49947694 L7.76625,9.49947694 L7.76625,17.9069769 L9.796875,17.9069769 Z M22.705,17.9069769 L22.705,16.1732269 L18.798125,16.1732269 L18.798125,14.4276019 L22.289375,14.4276019 L22.289375,12.8007269 L18.798125,12.8007269 L18.798125,11.2213519 L22.49125,11.2213519 L22.49125,9.49947694 L16.83875,9.49947694 L16.83875,17.9069769 L22.705,17.9069769 Z M26.041875,17.9069769 L26.041875,14.5701019 L26.730625,14.5701019 L28.5475,17.9069769 L30.9225,17.9069769 L28.725625,14.3088519 C29.271875,14.1426019 29.699375,13.8655186 30.008125,13.4776019 C30.316875,13.0896853 30.47125,12.6107269 30.47125,12.0407269 C30.47125,11.5578103 30.3802083,11.1540603 30.198125,10.8294769 C30.0160417,10.5048936 29.7726042,10.2436436 29.4678125,10.0457269 C29.1630208,9.84781027 28.8186458,9.70728944 28.4346875,9.62416444 C28.0507292,9.54103944 27.656875,9.49947694 27.253125,9.49947694 L27.253125,9.49947694 L24.046875,9.49947694 L24.046875,17.9069769 L26.041875,17.9069769 Z M26.991875,13.0976019 L26.03,13.0976019 L26.03,11.1382269 L27.110625,11.1382269 C27.2610417,11.1382269 27.4173958,11.1501019 27.5796875,11.1738519 C27.7419792,11.1976019 27.8884375,11.2431228 28.0190625,11.3104144 C28.1496875,11.3777061 28.2565625,11.4727061 28.3396875,11.5954144 C28.4228125,11.7181228 28.464375,11.8784353 28.464375,12.0763519 C28.464375,12.2901019 28.4188542,12.4642686 28.3278125,12.5988519 C28.2367708,12.7334353 28.12,12.8363519 27.9775,12.9076019 C27.835,12.9788519 27.6766667,13.0283311 27.5025,13.0560394 C27.3283333,13.0837478 27.158125,13.0976019 26.991875,13.0976019 L26.991875,13.0976019 Z M33.831875,17.9069769 L33.784375,11.9576019 L33.82,11.9576019 L35.945625,17.9069769 L37.370625,17.9069769 L39.555625,11.9576019 L39.59125,11.9576019 L39.54375,17.9069769 L41.526875,17.9069769 L41.526875,9.49947694 L38.59375,9.49947694 L36.765,14.8907269 L36.7175,14.8907269 L34.805625,9.49947694 L31.92,9.49947694 L31.92,17.9069769 L33.831875,17.9069769 Z M47.440625,18.1326019 C48.0977083,18.1326019 48.7072917,18.0257269 49.269375,17.8119769 C49.8314583,17.5982269 50.3163542,17.2954144 50.7240625,16.9035394 C51.1317708,16.5116644 51.4504167,16.0406228 51.68,15.4904144 C51.9095833,14.9402061 52.024375,14.3326019 52.024375,13.6676019 C52.024375,12.9946853 51.9095833,12.3870811 51.68,11.8447894 C51.4504167,11.3024978 51.1317708,10.8413519 50.7240625,10.4613519 C50.3163542,10.0813519 49.8314583,9.78843527 49.269375,9.58260194 C48.7072917,9.3767686 48.0977083,9.27385194 47.440625,9.27385194 C46.7835417,9.27385194 46.1759375,9.3767686 45.6178125,9.58260194 C45.0596875,9.78843527 44.5767708,10.0813519 44.1690625,10.4613519 C43.7613542,10.8413519 43.4427083,11.3024978 43.213125,11.8447894 C42.9835417,12.3870811 42.86875,12.9946853 42.86875,13.6676019 C42.86875,14.3326019 42.9835417,14.9402061 43.213125,15.4904144 C43.4427083,16.0406228 43.7613542,16.5116644 44.1690625,16.9035394 C44.5767708,17.2954144 45.0596875,17.5982269 45.6178125,17.8119769 C46.1759375,18.0257269 46.7835417,18.1326019 47.440625,18.1326019 Z M47.440625,16.2801019 C47.084375,16.2801019 46.7597917,16.2147894 46.466875,16.0841644 C46.1739583,15.9535394 45.9226042,15.7734353 45.7128125,15.5438519 C45.5030208,15.3142686 45.33875,15.0391644 45.22,14.7185394 C45.10125,14.3979144 45.041875,14.0476019 45.041875,13.6676019 C45.041875,13.3034353 45.0992708,12.9630186 45.2140625,12.6463519 C45.3288542,12.3296853 45.493125,12.0585394 45.706875,11.8329144 C45.920625,11.6072894 46.1739583,11.4291644 46.466875,11.2985394 C46.7597917,11.1679144 47.084375,11.1026019 47.440625,11.1026019 C47.796875,11.1026019 48.1234375,11.1679144 48.4203125,11.2985394 C48.7171875,11.4291644 48.9705208,11.6072894 49.1803125,11.8329144 C49.3901042,12.0585394 49.554375,12.3296853 49.673125,12.6463519 C49.791875,12.9630186 49.85125,13.3034353 49.85125,13.6676019 C49.85125,14.0476019 49.791875,14.3979144 49.673125,14.7185394 C49.554375,15.0391644 49.388125,15.3142686 49.174375,15.5438519 C48.960625,15.7734353 48.7072917,15.9535394 48.414375,16.0841644 C48.1214583,16.2147894 47.796875,16.2801019 47.440625,16.2801019 Z M55.278125,17.9069769 L55.230625,11.9576019 L55.26625,11.9576019 L57.391875,17.9069769 L58.816875,17.9069769 L61.001875,11.9576019 L61.0375,11.9576019 L60.99,17.9069769 L62.973125,17.9069769 L62.973125,9.49947694 L60.04,9.49947694 L58.21125,14.8907269 L58.16375,14.8907269 L56.251875,9.49947694 L53.36625,9.49947694 L53.36625,17.9069769 L55.278125,17.9069769 Z M65.8825,17.9069769 L66.5,16.2563519 L69.75375,16.2563519 L70.406875,17.9069769 L72.663125,17.9069769 L69.171875,9.49947694 L67.200625,9.49947694 L63.67375,17.9069769 L65.8825,17.9069769 Z M69.195625,14.6294769 L67.081875,14.6294769 L68.150625,11.7438519 L69.195625,14.6294769 Z" id="THERMOMAX" fill-rule="nonzero"></path>
                        <path d="M2.52636405,6.68076235 L2.52636405,6.34966581 C3.08172856,6.3068374 3.51277128,6.17176318 3.81949221,5.94444317 C4.12621313,5.71712315 4.27957359,5.4140298 4.27957359,5.0351631 C4.27957359,4.65629641 4.12621313,4.35402667 3.81949221,4.1283539 C3.51277128,3.90268113 3.08172856,3.7667833 2.52636405,3.7206604 L2.52636405,3.38462211 L1.75320954,3.38462211 L1.75320954,3.7206604 C1.19784503,3.7667833 0.766802308,3.90350476 0.460081385,4.13082477 C0.153360462,4.35814479 0,4.6595909 0,5.0351631 C0,5.4140298 0.153360462,5.71712315 0.460081385,5.94444317 C0.766802308,6.17176318 1.19784503,6.3068374 1.75320954,6.34966581 L1.75320954,6.68076235 L2.52636405,6.68076235 Z M2.52636405,4.34826131 C2.83852973,4.38120624 3.07719127,4.45697958 3.24234869,4.57558133 C3.40750611,4.69418308 3.49008482,4.847377 3.49008482,5.0351631 C3.49008482,5.2229492 3.40659866,5.37614313 3.23962632,5.49474487 C3.07628381,5.61334662 2.83852973,5.68911996 2.52636405,5.72206489 L2.52636405,4.34826131 Z M1.75320954,5.72206489 C1.44104386,5.68911996 1.20328978,5.61334662 1.03994727,5.49474487 C0.876604768,5.37614313 0.794933517,5.2229492 0.794933517,5.0351631 C0.794933517,4.847377 0.876604768,4.69418308 1.03994727,4.57558133 C1.20328978,4.45697958 1.44104386,4.38120624 1.75320954,4.34826131 L1.75320954,5.72206489 Z M5.13984411,6.68076235 L5.36852361,6.12234579 L6.92572215,6.12234579 L7.1489569,6.68076235 L8.03100642,6.68076235 L6.63170564,3.38462211 L5.66254012,3.38462211 L4.25779459,6.68076235 L5.13984411,6.68076235 Z M6.71337689,5.50462835 L5.58086887,5.50462835 L6.14712288,4.08634912 L6.71337689,5.50462835 Z M9.94211371,6.74006323 C10.6100031,6.74006323 11.1163648,6.4699148 11.461199,5.92961795 L10.7969395,5.63805532 C10.7170831,5.77971852 10.600021,5.89502577 10.4457531,5.98397708 C10.2914852,6.07292839 10.1236054,6.11740405 9.94211371,6.11740405 C9.61179887,6.11740405 9.33956136,6.01527477 9.12540119,5.8110162 C8.91124102,5.60675764 8.80416094,5.34813994 8.80416094,5.0351631 C8.80416094,4.72218627 8.91124102,4.46356857 9.12540119,4.25931 C9.33956136,4.05505144 9.61179887,3.95292215 9.94211371,3.95292215 C10.1236054,3.95292215 10.2914852,3.99822143 10.4457531,4.08881999 C10.600021,4.17941855 10.7170831,4.29390218 10.7969395,4.43227088 L11.461199,4.13576651 C11.1272543,3.59876416 10.6208926,3.33026298 9.94211371,3.33026298 C9.39037903,3.33026298 8.93029765,3.48922226 8.56186956,3.80714084 C8.19344146,4.12505941 8.00922742,4.53440017 8.00922742,5.0351631 C8.00922742,5.53592604 8.19344146,5.94526679 8.56186956,6.26318537 C8.93029765,6.58110394 9.39037903,6.74006323 9.94211371,6.74006323 Z M12.3813618,6.68076235 L12.6100413,6.12234579 L14.1672398,6.12234579 L14.3904746,6.68076235 L15.2725241,6.68076235 L13.8732233,3.38462211 L12.9040578,3.38462211 L11.4993122,6.68076235 L12.3813618,6.68076235 Z M13.9548945,5.50462835 L12.8223865,5.50462835 L13.3886405,4.08634912 L13.9548945,5.50462835 Z M16.1654631,7.28859631 L16.1654631,6.68076235 L18.4304791,6.68076235 L18.4304791,7.28859631 L19.2036337,7.28859631 L19.2036337,6.06304492 L18.8769486,6.06304492 L18.8769486,3.38462211 L16.2961371,3.38462211 L16.0837918,5.06975528 C16.0474935,5.34978718 15.9966758,5.56557647 15.9313388,5.71712315 C15.8660018,5.86866983 15.7943126,5.96915187 15.7162712,6.01856926 C15.6382298,6.06798666 15.5302422,6.10093159 15.3923086,6.11740405 L15.3923086,7.28859631 L16.1654631,7.28859631 Z M18.0983494,6.06304492 L16.4104768,6.06304492 C16.6536757,5.85878635 16.8006839,5.54416227 16.8515016,5.11917267 L16.9930651,4.00233955 L18.0983494,4.00233955 L18.0983494,6.06304492 Z M20.4287024,6.68076235 L20.4287024,5.29707529 L22.1437987,5.29707529 L22.1437987,6.68076235 L22.922398,6.68076235 L22.922398,3.38462211 L22.1437987,3.38462211 L22.1437987,4.67935786 L20.4287024,4.67935786 L20.4287024,3.38462211 L19.6555479,3.38462211 L19.6555479,6.68076235 L20.4287024,6.68076235 Z M25.3344223,6.68076235 C25.7155548,6.68076235 26.0141086,6.57945669 26.2300837,6.37684537 C26.4460588,6.17423405 26.5540463,5.92138172 26.5540463,5.61828836 C26.5540463,5.3184895 26.4451513,5.06646078 26.2273613,4.86220222 C26.0095713,4.65794365 25.711925,4.55581437 25.3344223,4.55581437 L24.4088148,4.55581437 L24.4088148,3.38462211 L23.6356602,3.38462211 L23.6356602,6.68076235 L25.3344223,6.68076235 Z M27.6375516,6.68076235 L27.6375516,3.38462211 L26.8589523,3.38462211 L26.8589523,6.68076235 L27.6375516,6.68076235 Z M24.4088148,6.06304492 L24.4088148,5.17353181 L25.230972,5.17353181 C25.3870549,5.17353181 25.5150065,5.21388935 25.6148269,5.29460442 C25.7146473,5.3753195 25.7645575,5.48321415 25.7645575,5.61828836 C25.7645575,5.75336257 25.7146473,5.86125722 25.6148269,5.9419723 C25.5150065,6.02268738 25.3870549,6.06304492 25.230972,6.06304492 L24.4088148,6.06304492 Z M30.9261807,6.68076235 L30.9261807,6.06304492 L29.1294131,6.06304492 L29.1294131,5.31684225 L30.8880674,5.31684225 L30.8880674,4.69912482 L29.1294131,4.69912482 L29.1294131,4.00233955 L30.9261807,4.00233955 L30.9261807,3.38462211 L28.3562586,3.38462211 L28.3562586,6.68076235 L30.9261807,6.68076235 Z M34.6830582,6.74006323 C35.3509476,6.74006323 35.8573093,6.4699148 36.2021435,5.92961795 L35.537884,5.63805532 C35.4580277,5.77971852 35.3409655,5.89502577 35.1866976,5.98397708 C35.0324297,6.07292839 34.8645499,6.11740405 34.6830582,6.11740405 C34.3527434,6.11740405 34.0805059,6.01527477 33.8663457,5.8110162 C33.6521855,5.60675764 33.5451055,5.34813994 33.5451055,5.0351631 C33.5451055,4.72218627 33.6521855,4.46356857 33.8663457,4.25931 C34.0805059,4.05505144 34.3527434,3.95292215 34.6830582,3.95292215 C34.8645499,3.95292215 35.0324297,3.99822143 35.1866976,4.08881999 C35.3409655,4.17941855 35.4580277,4.29390218 35.537884,4.43227088 L36.2021435,4.13576651 C35.8681988,3.59876416 35.3618371,3.33026298 34.6830582,3.33026298 C34.1313236,3.33026298 33.6712422,3.48922226 33.3028141,3.80714084 C32.934386,4.12505941 32.7501719,4.53440017 32.7501719,5.0351631 C32.7501719,5.53592604 32.934386,5.94526679 33.3028141,6.26318537 C33.6712422,6.58110394 34.1313236,6.74006323 34.6830582,6.74006323 Z M37.410878,6.68076235 L39.1423086,4.4718048 L39.1423086,6.68076235 L39.9154631,6.68076235 L39.9154631,3.38462211 L39.1205296,3.38462211 L37.4381018,5.51451183 L37.4381018,3.38462211 L36.6649473,3.38462211 L36.6649473,6.68076235 L37.410878,6.68076235 Z M42.3928244,6.74006323 C43.0607137,6.74006323 43.5670755,6.4699148 43.9119097,5.92961795 L43.2476502,5.63805532 C43.1677938,5.77971852 43.0507317,5.89502577 42.8964638,5.98397708 C42.7421959,6.07292839 42.5743161,6.11740405 42.3928244,6.11740405 C42.0625096,6.11740405 41.790272,6.01527477 41.5761119,5.8110162 C41.3619517,5.60675764 41.2548716,5.34813994 41.2548716,5.0351631 C41.2548716,4.72218627 41.3619517,4.46356857 41.5761119,4.25931 C41.790272,4.05505144 42.0625096,3.95292215 42.3928244,3.95292215 C42.5743161,3.95292215 42.7421959,3.99822143 42.8964638,4.08881999 C43.0507317,4.17941855 43.1677938,4.29390218 43.2476502,4.43227088 L43.9119097,4.13576651 C43.577965,3.59876416 43.0716032,3.33026298 42.3928244,3.33026298 C41.8410897,3.33026298 41.3810083,3.48922226 41.0125802,3.80714084 C40.6441521,4.12505941 40.4599381,4.53440017 40.4599381,5.0351631 C40.4599381,5.53592604 40.6441521,5.94526679 41.0125802,6.26318537 C41.3810083,6.58110394 41.8410897,6.74006323 42.3928244,6.74006323 Z M45.9918042,6.68076235 L45.9918042,4.00233955 L47.0480857,4.00233955 L47.0480857,3.38462211 L44.1514787,3.38462211 L44.1514787,4.00233955 L45.213205,4.00233955 L45.213205,6.68076235 L45.9918042,6.68076235 Z M50.1134801,6.68076235 L50.1134801,6.06304492 L48.3167125,6.06304492 L48.3167125,5.31684225 L50.0753668,5.31684225 L50.0753668,4.69912482 L48.3167125,4.69912482 L48.3167125,4.00233955 L50.1134801,4.00233955 L50.1134801,3.38462211 L47.543558,3.38462211 L47.543558,6.68076235 L50.1134801,6.68076235 Z M51.4910018,6.68076235 L51.4910018,4.37297001 L52.5146149,6.68076235 L52.8521894,6.68076235 L53.8758024,4.37297001 L53.8758024,6.68076235 L54.6544017,6.68076235 L54.6544017,3.38462211 L53.5654516,3.38462211 L52.6834021,5.37614313 L51.8013526,3.38462211 L50.7178473,3.38462211 L50.7178473,6.68076235 L51.4910018,6.68076235 Z M57.0718707,6.68076235 C57.4530032,6.68076235 57.751557,6.57945669 57.9675321,6.37684537 C58.1835072,6.17423405 58.2914947,5.92138172 58.2914947,5.61828836 C58.2914947,5.3184895 58.1825997,5.06646078 57.9648097,4.86220222 C57.7470197,4.65794365 57.4493734,4.55581437 57.0718707,4.55581437 L56.1462632,4.55581437 L56.1462632,3.38462211 L55.3731087,3.38462211 L55.3731087,6.68076235 L57.0718707,6.68076235 Z M59.375,6.68076235 L59.375,3.38462211 L58.5964007,3.38462211 L58.5964007,6.68076235 L59.375,6.68076235 Z M56.1462632,6.06304492 L56.1462632,5.17353181 L56.9684204,5.17353181 C57.1245033,5.17353181 57.2524549,5.21388935 57.3522753,5.29460442 C57.4520958,5.3753195 57.502006,5.48321415 57.502006,5.61828836 C57.502006,5.75336257 57.4520958,5.86125722 57.3522753,5.9419723 C57.2524549,6.02268738 57.1245033,6.06304492 56.9684204,6.06304492 L56.1462632,6.06304492 Z" id="ФАСАДНЫЕСИСТЕМЫ" fill-rule="nonzero"></path>
                    </g>
                </g>
            </g>
        </g>
    </g>
</svg>