<?xml version="1.0" encoding="utf-8"?>
<!-- Generator: Adobe Illustrator 27.5.0, SVG Export Plug-In . SVG Version: 6.00 Build 0)  -->
<svg version="1.1" id="Слой_1" xmlns="http://www.w3.org/2000/svg" xmlns:xlink="http://www.w3.org/1999/xlink" x="0px" y="0px"
	 viewBox="0 0 197.3 85.3" style="enable-background:new 0 0 197.3 85.3;" xml:space="preserve">
<style type="text/css">
	.st0{clip-path:url(#SVGID_00000180344248300681790000000018173606780652499331_);fill:#EC6608;}
	.st1{clip-path:url(#SVGID_00000116942473479036597690000014093209909894576054_);fill:#EC6608;}
	.st2{clip-path:url(#SVGID_00000122721451794727775290000014761310825010865848_);fill:#EC6608;}
	.st3{clip-path:url(#SVGID_00000108996809782580252960000001781363771862865063_);fill:#EC6608;}
	.st4{clip-path:url(#SVGID_00000156582796939877850610000017409533915449462456_);fill:#EC6608;}
	.st5{clip-path:url(#SVGID_00000150821022361859235300000002912353840068523679_);fill:#EC6608;}
	.st6{clip-path:url(#SVGID_00000040554674466653272010000009215041639358422964_);fill:#EC6608;}
	.st7{clip-path:url(#SVGID_00000017478588482174217320000008252013418895197324_);fill:#EC6608;}
	.st8{clip-path:url(#SVGID_00000152955489471333257860000016493930614517688496_);fill:#EC6608;}
	.st9{clip-path:url(#SVGID_00000109030088987593530970000009903675959134813836_);fill:#EC6608;}
	.st10{clip-path:url(#SVGID_00000018227154744875528210000001140052935116272792_);fill:#EC6608;}
	.st11{clip-path:url(#SVGID_00000099629232338246197860000015790533250581536404_);fill:#EC6608;}
	.st12{clip-path:url(#SVGID_00000175324004505105043170000012261515813055388336_);fill:#EC6608;}
	.st13{clip-path:url(#SVGID_00000019676989053883928590000012153812416120782998_);fill:#EC6608;}
	.st14{clip-path:url(#SVGID_00000053515261869401608670000016942960230815670686_);fill:#EC6608;}
	.st15{clip-path:url(#SVGID_00000080204596476556710250000013909292328944671121_);fill:#EC6608;}
	.st16{clip-path:url(#SVGID_00000106105721840994305170000013185566869790011816_);fill:#EC6608;}
	.st17{clip-path:url(#SVGID_00000072281673859744586480000013377987349563075754_);fill:#EC6608;}
	.st18{clip-path:url(#SVGID_00000096742759746020274580000005160390499668977545_);fill:#EC6608;}
	.st19{clip-path:url(#SVGID_00000085222095767918588830000009660926639270330041_);fill:#EC6608;}
	.st20{clip-path:url(#SVGID_00000106114949894943195460000002698673085770815666_);fill:#EC6608;}
	.st21{clip-path:url(#SVGID_00000061436219208462859240000016032849233227113874_);fill:#EC6608;}
	.st22{clip-path:url(#SVGID_00000171699476902249039550000003961564953105099955_);fill:#EC6608;}
	.st23{clip-path:url(#SVGID_00000123401826064678460280000006169883212138976409_);fill:#EC6608;}
	.st24{clip-path:url(#SVGID_00000123435152608639691950000012330554663216306586_);fill:#EC6608;}
	.st25{clip-path:url(#SVGID_00000119115048442338587050000002541476376623905669_);fill:#EC6608;}
	.st26{clip-path:url(#SVGID_00000038394113266920643660000011824504910016824466_);fill:#EC6608;}
	.st27{clip-path:url(#SVGID_00000078747829223790557420000009424381055376773022_);fill:#EC6608;}
	.st28{clip-path:url(#SVGID_00000090257877204015030390000012620867294806188205_);fill:#EC6608;}
	.st29{clip-path:url(#SVGID_00000059309078267471616080000007601358702324920449_);fill:#EC6608;}
	.st30{clip-path:url(#SVGID_00000182525475881466529480000008590604325913052837_);fill:#EC6608;}
	.st31{clip-path:url(#SVGID_00000054953086081291997970000007155306408599537576_);fill:#EC6608;}
	.st32{clip-path:url(#SVGID_00000005986988335537416040000008712758829208672931_);fill:#EC6608;}
	.st33{clip-path:url(#SVGID_00000101069367321899304590000017931660814273033900_);fill:#EC6608;}
	.st34{clip-path:url(#SVGID_00000091005676259901245360000003143375583831204790_);fill:#EC6608;}
</style>
<g>
	<g>
		<defs>
			<rect id="SVGID_1_" x="-0.1" y="0.6" width="197.3" height="84.2"/>
		</defs>
		<clipPath id="SVGID_00000069395794365225732990000004190463970831583379_">
			<use xlink:href="#SVGID_1_"  style="overflow:visible;"/>
		</clipPath>
		<path style="clip-path:url(#SVGID_00000069395794365225732990000004190463970831583379_);fill:#EC6608;" d="M98.9,21.4
			c0,0,0.2-4.3-4.8-4.3s-4.8,4.3-4.8,4.3V33H78.5V0.6H87v6.8h2.8V0.6h8.5v6.8h2.8V0.6h8.5v32.3H98.8L98.9,21.4L98.9,21.4z"/>
	</g>
	<g>
		<defs>
			<rect id="SVGID_00000078003616153543167650000013182092326449393284_" x="-0.1" y="0.6" width="197.3" height="84.2"/>
		</defs>
		<clipPath id="SVGID_00000103248527873486204810000014644132435427746998_">
			<use xlink:href="#SVGID_00000078003616153543167650000013182092326449393284_"  style="overflow:visible;"/>
		</clipPath>
		<path style="clip-path:url(#SVGID_00000103248527873486204810000014644132435427746998_);fill:#EC6608;" d="M0.5,80.4v-1.2h2.2
			c0-0.4-0.2-0.8-0.4-1c-0.2-0.3-0.6-0.4-1-0.4c-0.3,0-0.7,0.1-1,0.2L0,76.8c0.4-0.2,0.9-0.3,1.6-0.3c0.8,0,1.5,0.3,2.1,0.8
			c0.6,0.6,0.9,1.5,0.9,2.5c0,1.1-0.3,1.9-0.9,2.5c-0.6,0.6-1.3,0.9-2.3,0.9c-0.6,0-1.1-0.1-1.4-0.3l0.2-1.3c0.4,0.1,0.7,0.2,1,0.2
			c0.4,0,0.8-0.1,1.1-0.4s0.4-0.6,0.5-1.1H0.5V80.4z"/>
	</g>
	<g>
		<defs>
			<rect id="SVGID_00000154413650740019650490000011160877604029689273_" x="-0.1" y="0.6" width="197.3" height="84.2"/>
		</defs>
		<clipPath id="SVGID_00000147215095489260233660000009285186720676658090_">
			<use xlink:href="#SVGID_00000154413650740019650490000011160877604029689273_"  style="overflow:visible;"/>
		</clipPath>
		<path style="clip-path:url(#SVGID_00000147215095489260233660000009285186720676658090_);fill:#EC6608;" d="M9.7,75h1.6v1.4
			c0.8,0.1,1.5,0.5,1.9,1.1s0.7,1.4,0.7,2.4s-0.2,1.8-0.7,2.4c-0.4,0.6-1.1,0.9-2,1.1v1.5H9.6v-1.5C7.9,83.2,7,82,7,80
			c0-1,0.2-1.7,0.7-2.3c0.4-0.6,1.1-1,1.9-1.1L9.7,75z M9.7,82.2v-4.7c-0.7,0.3-1,1.1-1,2.4C8.7,81.1,9,81.9,9.7,82.2 M11.2,77.5
			v4.7c0.7-0.3,1-1.1,1-2.4C12.3,78.6,11.9,77.8,11.2,77.5"/>
	</g>
	<g>
		<defs>
			<rect id="SVGID_00000135680336660845506140000011174170383321423253_" x="-0.1" y="0.6" width="197.3" height="84.2"/>
		</defs>
		<clipPath id="SVGID_00000116223149268221193100000006898570777382716569_">
			<use xlink:href="#SVGID_00000135680336660845506140000011174170383321423253_"  style="overflow:visible;"/>
		</clipPath>
		<path style="clip-path:url(#SVGID_00000116223149268221193100000006898570777382716569_);fill:#EC6608;" d="M19,75h1.6v1.4
			c0.8,0.1,1.5,0.5,1.9,1.1s0.7,1.4,0.7,2.4s-0.2,1.8-0.7,2.4c-0.4,0.6-1.1,0.9-2,1.1v1.5h-1.6v-1.5c-1.7-0.2-2.6-1.4-2.6-3.4
			c0-1,0.2-1.7,0.7-2.3c0.4-0.6,1.1-1,1.9-1.1L19,75z M19,82.2v-4.7c-0.7,0.3-1,1.1-1,2.4C18,81.1,18.4,81.9,19,82.2 M20.6,77.5v4.7
			c0.7-0.3,1-1.1,1-2.4C21.6,78.6,21.3,77.8,20.6,77.5"/>
	</g>
	<g>
		<defs>
			<rect id="SVGID_00000121977809497122857250000011537981952761181090_" x="-0.1" y="0.6" width="197.3" height="84.2"/>
		</defs>
		<clipPath id="SVGID_00000142152346451341268250000011206007779700502936_">
			<use xlink:href="#SVGID_00000121977809497122857250000011537981952761181090_"  style="overflow:visible;"/>
		</clipPath>
		<path style="clip-path:url(#SVGID_00000142152346451341268250000011206007779700502936_);fill:#EC6608;" d="M30.6,80.5h-3.1
			c0,0.5,0.1,0.8,0.4,1.1c0.3,0.2,0.6,0.3,1,0.3s0.8-0.1,1.3-0.2l0.2,1.3c-0.5,0.2-1.1,0.3-1.8,0.3c-0.9,0-1.6-0.3-2.1-0.9
			S25.8,81,25.8,80c0-1.1,0.2-2,0.8-2.6c0.5-0.6,1.1-1,1.9-1c0.7,0,1.3,0.3,1.7,0.8c0.4,0.5,0.6,1.3,0.6,2.3
			C30.7,79.9,30.7,80.2,30.6,80.5 M27.5,79.2h1.6c0-1-0.2-1.5-0.7-1.5c-0.3,0-0.5,0.2-0.6,0.5C27.6,78.5,27.5,78.8,27.5,79.2"/>
	</g>
	<g>
		<defs>
			<rect id="SVGID_00000005952625598840329840000011479651758331322757_" x="-0.1" y="0.6" width="197.3" height="84.2"/>
		</defs>
		<clipPath id="SVGID_00000151542082219939786000000011433026158047132545_">
			<use xlink:href="#SVGID_00000005952625598840329840000011479651758331322757_"  style="overflow:visible;"/>
		</clipPath>
		<path style="clip-path:url(#SVGID_00000151542082219939786000000011433026158047132545_);fill:#EC6608;" d="M33.5,76.5h1.7v2.6
			h0.3l1.2-2.6h1.8l-1.7,2.8c0.6,0.2,0.9,0.8,1.2,1.9c0.2,0.8,0.4,1.4,0.6,1.9h-1.8c-0.1-0.3-0.3-0.8-0.5-1.6
			c-0.2-0.8-0.5-1.1-0.9-1.1h-0.1v2.7h-1.8V76.5z"/>
	</g>
	<g>
		<defs>
			<rect id="SVGID_00000111907026036647964310000012374927000893620659_" x="-0.1" y="0.6" width="197.3" height="84.2"/>
		</defs>
		<clipPath id="SVGID_00000159463831782287385370000016131463206964725663_">
			<use xlink:href="#SVGID_00000111907026036647964310000012374927000893620659_"  style="overflow:visible;"/>
		</clipPath>
		<polygon style="clip-path:url(#SVGID_00000159463831782287385370000016131463206964725663_);fill:#EC6608;" points="40.8,76.5 
			45.5,76.5 45.5,78 44,78 44,83.2 42.2,83.2 42.2,78 40.8,78 		"/>
	</g>
	<g>
		<defs>
			<rect id="SVGID_00000001658048486304256200000007696961815672502195_" x="-0.1" y="0.6" width="197.3" height="84.2"/>
		</defs>
		<clipPath id="SVGID_00000053505452023653027810000002166490751481574541_">
			<use xlink:href="#SVGID_00000001658048486304256200000007696961815672502195_"  style="overflow:visible;"/>
		</clipPath>
		<path style="clip-path:url(#SVGID_00000053505452023653027810000002166490751481574541_);fill:#EC6608;" d="M48.1,76.5h1.6V78
			c0,1.1,0,2.1-0.1,3l0,0c0.2-0.5,0.4-1.1,0.7-2l1-2.5H53v6.6h-1.6v-1.4c0-0.6,0-1.6,0.1-3l0,0c-0.2,0.8-0.5,1.4-0.7,1.9
			c-0.4,1-0.8,1.9-1.1,2.5H48L48.1,76.5L48.1,76.5z"/>
	</g>
	<g>
		<defs>
			<rect id="SVGID_00000100341223721100095850000008979333438321410722_" x="-0.1" y="0.6" width="197.3" height="84.2"/>
		</defs>
		<clipPath id="SVGID_00000180361947594376708620000004373855470016111294_">
			<use xlink:href="#SVGID_00000100341223721100095850000008979333438321410722_"  style="overflow:visible;"/>
		</clipPath>
		<path style="clip-path:url(#SVGID_00000180361947594376708620000004373855470016111294_);fill:#EC6608;" d="M56,83.2v-6.6
			c0.6-0.1,1.3-0.1,1.9-0.1c2,0,2.9,0.6,2.9,1.7c0,0.4-0.1,0.7-0.4,1c-0.2,0.3-0.5,0.4-0.9,0.5l0,0c0.5,0.1,0.9,0.3,1.1,0.5
			c0.3,0.3,0.4,0.6,0.4,1s-0.1,0.8-0.3,1.1c-0.2,0.3-0.5,0.5-0.9,0.6s-0.8,0.2-1.1,0.3c-0.4,0.1-0.7,0.1-1.1,0.1
			C57,83.2,56.4,83.2,56,83.2 M57.8,80.3V82c0.1,0,0.3,0,0.4,0c0.4,0,0.6-0.1,0.9-0.2c0.2-0.1,0.4-0.4,0.4-0.7
			c0-0.3-0.1-0.5-0.4-0.7c-0.2-0.2-0.5-0.2-0.9-0.2L57.8,80.3L57.8,80.3z M57.8,77.6v1.6h0.4c0.3,0,0.6-0.1,0.8-0.2
			c0.2-0.1,0.3-0.4,0.3-0.6S59.2,78,59,77.8c-0.2-0.1-0.4-0.2-0.8-0.2C58,77.6,57.9,77.6,57.8,77.6"/>
	</g>
	<g>
		<defs>
			<rect id="SVGID_00000053506407196396376220000007638634068383412382_" x="-0.1" y="0.6" width="197.3" height="84.2"/>
		</defs>
		<clipPath id="SVGID_00000131357430436848765420000013390412746703862145_">
			<use xlink:href="#SVGID_00000053506407196396376220000007638634068383412382_"  style="overflow:visible;"/>
		</clipPath>
		<polygon style="clip-path:url(#SVGID_00000131357430436848765420000013390412746703862145_);fill:#EC6608;" points="64,76.5 
			65.7,76.5 65.7,79 67.1,79 67.1,76.5 68.9,76.5 68.9,83.2 67.1,83.2 67.1,80.5 65.7,80.5 65.7,83.2 64,83.2 		"/>
	</g>
	<g>
		<defs>
			<rect id="SVGID_00000033331154143881707840000016311658543823304107_" x="-0.1" y="0.6" width="197.3" height="84.2"/>
		</defs>
		<clipPath id="SVGID_00000085964286849109056800000014831922158823624595_">
			<use xlink:href="#SVGID_00000033331154143881707840000016311658543823304107_"  style="overflow:visible;"/>
		</clipPath>
		<path style="clip-path:url(#SVGID_00000085964286849109056800000014831922158823624595_);fill:#EC6608;" d="M76.5,79.2v2.5
			c0,0.6,0,1.1,0.1,1.5H75l-0.1-0.7l0,0c-0.4,0.5-0.8,0.8-1.5,0.8c-0.5,0-0.9-0.2-1.3-0.6c-0.3-0.4-0.5-0.9-0.5-1.4
			c0-0.8,0.3-1.4,0.9-1.8s1.3-0.6,2.1-0.6v-0.1c0-0.3-0.1-0.5-0.2-0.7c-0.2-0.2-0.4-0.2-0.7-0.2c-0.5,0-0.9,0.1-1.4,0.4L72,77.1
			c0.6-0.3,1.3-0.5,2.1-0.5c0.5,0,0.9,0.1,1.2,0.2c0.3,0.2,0.6,0.4,0.7,0.7c0.2,0.3,0.3,0.6,0.3,0.9C76.5,78.5,76.5,78.8,76.5,79.2
			 M74.7,81.1v-1.2c-0.2,0-0.4,0-0.6,0.1s-0.4,0.2-0.5,0.3c-0.2,0.2-0.2,0.4-0.2,0.7c0,0.3,0.1,0.5,0.2,0.7c0.1,0.1,0.3,0.2,0.4,0.2
			c0.4,0,0.6-0.2,0.7-0.6C74.7,81.3,74.7,81.2,74.7,81.1"/>
	</g>
	<g>
		<defs>
			<rect id="SVGID_00000131356185145608836650000009897600136099226043_" x="-0.1" y="0.6" width="197.3" height="84.2"/>
		</defs>
		<clipPath id="SVGID_00000041279076286533097460000003388187259012493754_">
			<use xlink:href="#SVGID_00000131356185145608836650000009897600136099226043_"  style="overflow:visible;"/>
		</clipPath>
		<path style="clip-path:url(#SVGID_00000041279076286533097460000003388187259012493754_);fill:#EC6608;" d="M84.3,76.6v6.6h-1.7
			v-2.6h-0.2c-0.2,0-0.4,0-0.5,0.1c-0.1,0-0.2,0.1-0.2,0.2c-0.1,0.1-0.1,0.2-0.2,0.3c0,0.1-0.1,0.2-0.1,0.4s-0.1,0.3-0.1,0.4
			s-0.1,0.2-0.1,0.4c0,0.2-0.1,0.3-0.1,0.4C81,83,81,83.2,80.9,83.3h-1.8c0.1-0.2,0.3-0.5,0.3-0.7c0-0.1,0.1-0.2,0.1-0.4
			c0.1-0.2,0.1-0.3,0.1-0.4s0.1-0.2,0.1-0.4c0.1-0.2,0.1-0.3,0.2-0.4s0.1-0.2,0.2-0.3c0.2-0.2,0.5-0.4,0.8-0.5l0,0
			c-0.5-0.1-0.8-0.3-1.1-0.5c-0.3-0.3-0.4-0.6-0.4-1.1c0-0.6,0.3-1.1,0.8-1.4s1.2-0.5,2.2-0.5C83.2,76.5,83.8,76.5,84.3,76.6
			 M82.6,79.5v-1.8c-0.1,0-0.2,0-0.4,0c-0.3,0-0.5,0.1-0.7,0.2c-0.2,0.2-0.3,0.4-0.3,0.7s0.1,0.5,0.3,0.7c0.2,0.2,0.5,0.3,0.8,0.3
			C82.5,79.5,82.6,79.5,82.6,79.5"/>
	</g>
	<g>
		<defs>
			<rect id="SVGID_00000077285589693521324010000018244023394324835475_" x="-0.1" y="0.6" width="197.3" height="84.2"/>
		</defs>
		<clipPath id="SVGID_00000133519822043990996850000002766563063847877310_">
			<use xlink:href="#SVGID_00000077285589693521324010000018244023394324835475_"  style="overflow:visible;"/>
		</clipPath>
		<polygon style="clip-path:url(#SVGID_00000133519822043990996850000002766563063847877310_);fill:#EC6608;" points="91,76.5 
			95.7,76.5 95.7,78 94.2,78 94.2,83.2 92.4,83.2 92.4,78 91,78 		"/>
	</g>
	<g>
		<defs>
			<rect id="SVGID_00000004527026537740290220000002004130719329470616_" x="-0.1" y="0.6" width="197.3" height="84.2"/>
		</defs>
		<clipPath id="SVGID_00000068671324131479652240000010514325029230094000_">
			<use xlink:href="#SVGID_00000004527026537740290220000002004130719329470616_"  style="overflow:visible;"/>
		</clipPath>
		<path style="clip-path:url(#SVGID_00000068671324131479652240000010514325029230094000_);fill:#EC6608;" d="M102.9,80.5h-3.1
			c0,0.5,0.1,0.8,0.4,1.1c0.3,0.2,0.6,0.3,1,0.3s0.8-0.1,1.3-0.2l0.2,1.3c-0.5,0.2-1.1,0.3-1.8,0.3c-0.9,0-1.6-0.3-2.1-0.9
			S98.1,81,98.1,80c0-1.1,0.2-2,0.8-2.6c0.5-0.6,1.1-1,1.9-1c0.7,0,1.3,0.3,1.7,0.8s0.6,1.3,0.6,2.3
			C102.9,79.9,102.9,80.2,102.9,80.5 M99.7,79.2h1.6c0-1-0.2-1.5-0.7-1.5c-0.3,0-0.5,0.2-0.6,0.5C99.8,78.5,99.7,78.8,99.7,79.2"/>
	</g>
	<g>
		<defs>
			<rect id="SVGID_00000110434825163336072360000000214356522409704840_" x="-0.1" y="0.6" width="197.3" height="84.2"/>
		</defs>
		<clipPath id="SVGID_00000131352658352985850440000005958873841667860391_">
			<use xlink:href="#SVGID_00000110434825163336072360000000214356522409704840_"  style="overflow:visible;"/>
		</clipPath>
		<polygon style="clip-path:url(#SVGID_00000131352658352985850440000005958873841667860391_);fill:#EC6608;" points="105.8,76.5 
			110.7,76.5 110.7,83.2 108.9,83.2 108.9,78 107.5,78 107.5,83.2 105.8,83.2 		"/>
	</g>
	<g>
		<defs>
			<rect id="SVGID_00000142883014232294198410000006338490370474692994_" x="-0.1" y="0.6" width="197.3" height="84.2"/>
		</defs>
		<clipPath id="SVGID_00000089556577606496143670000010354889712298544291_">
			<use xlink:href="#SVGID_00000142883014232294198410000006338490370474692994_"  style="overflow:visible;"/>
		</clipPath>
		<path style="clip-path:url(#SVGID_00000089556577606496143670000010354889712298544291_);fill:#EC6608;" d="M114.1,76.5h4.4v6.6
			h-1.8V78h-1v1.4c0,1-0.1,1.8-0.3,2.4s-0.5,1-1.1,1.3c-0.3,0.1-0.6,0.2-0.9,0.2l-0.3-1.4c0.3-0.1,0.5-0.2,0.6-0.5
			c0.2-0.3,0.3-1,0.3-2v-2.9H114.1z"/>
	</g>
	<g>
		<defs>
			<rect id="SVGID_00000050635705565869158980000012922836974237236359_" x="-0.1" y="0.6" width="197.3" height="84.2"/>
		</defs>
		<clipPath id="SVGID_00000127044189173218349950000005618898611489926057_">
			<use xlink:href="#SVGID_00000050635705565869158980000012922836974237236359_"  style="overflow:visible;"/>
		</clipPath>
		<path style="clip-path:url(#SVGID_00000127044189173218349950000005618898611489926057_);fill:#EC6608;" d="M123.9,76.4
			c0.8,0,1.4,0.3,1.8,0.9c0.4,0.6,0.7,1.4,0.7,2.5c0,0.6-0.1,1.2-0.3,1.7s-0.4,0.8-0.7,1.1c-0.3,0.2-0.5,0.4-0.8,0.5
			s-0.5,0.2-0.8,0.2c-0.8,0-1.4-0.3-1.9-0.9c-0.4-0.6-0.7-1.4-0.7-2.5s0.2-2,0.7-2.6C122.6,76.7,123.2,76.4,123.9,76.4 M123.9,77.8
			c-0.5,0-0.8,0.7-0.8,2.1s0.3,2.1,0.8,2.1s0.7-0.7,0.7-2.1C124.7,78.4,124.4,77.8,123.9,77.8"/>
	</g>
	<g>
		<defs>
			<rect id="SVGID_00000035490421596886162030000016144120821585213082_" x="-0.1" y="0.6" width="197.3" height="84.2"/>
		</defs>
		<clipPath id="SVGID_00000151519088520670459550000005161530531105050804_">
			<use xlink:href="#SVGID_00000035490421596886162030000016144120821585213082_"  style="overflow:visible;"/>
		</clipPath>
		<path style="clip-path:url(#SVGID_00000151519088520670459550000005161530531105050804_);fill:#EC6608;" d="M129.3,76.5h1.6V78
			c0,1.1,0,2.1-0.1,3l0,0c0.2-0.5,0.4-1.1,0.7-2l1-2.5h1.7v6.6h-1.6v-1.4c0-0.6,0-1.6,0.1-3l0,0c-0.2,0.8-0.5,1.4-0.7,1.9
			c-0.4,1-0.8,1.9-1.1,2.5h-1.7v-6.6H129.3z"/>
	</g>
	<g>
		<defs>
			<rect id="SVGID_00000166643522771312133600000004476397383810117789_" x="-0.1" y="0.6" width="197.3" height="84.2"/>
		</defs>
		<clipPath id="SVGID_00000080895383290144719610000012402398244465759885_">
			<use xlink:href="#SVGID_00000166643522771312133600000004476397383810117789_"  style="overflow:visible;"/>
		</clipPath>
		<path style="clip-path:url(#SVGID_00000080895383290144719610000012402398244465759885_);fill:#EC6608;" d="M137.7,80.3v-1.2h0.6
			c0.3,0,0.6-0.1,0.8-0.2s0.3-0.3,0.3-0.6c0-0.2-0.1-0.4-0.3-0.5s-0.4-0.2-0.7-0.2c-0.4,0-0.8,0.1-1.2,0.3l-0.3-1.1
			c0.5-0.3,1.2-0.4,2-0.4c0.7,0,1.2,0.2,1.6,0.5c0.4,0.3,0.6,0.7,0.6,1.2c0,0.4-0.1,0.7-0.4,0.9c-0.2,0.3-0.6,0.4-1,0.5l0,0
			c0.5,0.1,0.9,0.3,1.2,0.6c0.3,0.3,0.4,0.7,0.4,1.1c0,0.6-0.3,1.1-0.8,1.5s-1.2,0.5-2,0.5c-0.7,0-1.3-0.1-1.8-0.4l0.3-1.2
			c0.4,0.2,0.9,0.3,1.3,0.3c0.4,0,0.7-0.1,0.9-0.2c0.2-0.2,0.3-0.4,0.3-0.6c0-0.3-0.1-0.5-0.4-0.6c-0.2-0.1-0.5-0.2-0.9-0.2
			L137.7,80.3L137.7,80.3z"/>
	</g>
	<g>
		<defs>
			<rect id="SVGID_00000154398631774811176430000017600142086319116192_" x="-0.1" y="0.6" width="197.3" height="84.2"/>
		</defs>
		<clipPath id="SVGID_00000038394147467035809410000001767750977867354796_">
			<use xlink:href="#SVGID_00000154398631774811176430000017600142086319116192_"  style="overflow:visible;"/>
		</clipPath>
		<path style="clip-path:url(#SVGID_00000038394147467035809410000001767750977867354796_);fill:#EC6608;" d="M146.4,76.4
			c0.8,0,1.4,0.3,1.8,0.9c0.4,0.6,0.7,1.4,0.7,2.5c0,0.6-0.1,1.2-0.3,1.7s-0.4,0.8-0.7,1.1c-0.3,0.2-0.5,0.4-0.8,0.5
			s-0.5,0.2-0.8,0.2c-0.8,0-1.4-0.3-1.9-0.9c-0.4-0.6-0.7-1.4-0.7-2.5s0.2-2,0.7-2.6C145.1,76.7,145.7,76.4,146.4,76.4 M146.4,77.8
			c-0.5,0-0.8,0.7-0.8,2.1s0.3,2.1,0.8,2.1s0.7-0.7,0.7-2.1C147.2,78.4,146.9,77.8,146.4,77.8"/>
	</g>
	<g>
		<defs>
			<rect id="SVGID_00000096027045602934948060000017023569854136462497_" x="-0.1" y="0.6" width="197.3" height="84.2"/>
		</defs>
		<clipPath id="SVGID_00000058583489326099241440000011438495377159766936_">
			<use xlink:href="#SVGID_00000096027045602934948060000017023569854136462497_"  style="overflow:visible;"/>
		</clipPath>
		<path style="clip-path:url(#SVGID_00000058583489326099241440000011438495377159766936_);fill:#EC6608;" d="M152.1,76.5h4.4v6.6
			h-1.8V78h-1v1.4c0,1-0.1,1.8-0.3,2.4s-0.5,1-1.1,1.3c-0.3,0.1-0.6,0.2-0.9,0.2l-0.3-1.4c0.3-0.1,0.5-0.2,0.6-0.5
			c0.2-0.3,0.3-1,0.3-2v-2.9H152.1z"/>
	</g>
	<g>
		<defs>
			<rect id="SVGID_00000088817457989837768980000003072318289582287770_" x="-0.1" y="0.6" width="197.3" height="84.2"/>
		</defs>
		<clipPath id="SVGID_00000041996484716233993370000003472722664446840234_">
			<use xlink:href="#SVGID_00000088817457989837768980000003072318289582287770_"  style="overflow:visible;"/>
		</clipPath>
		<path style="clip-path:url(#SVGID_00000041996484716233993370000003472722664446840234_);fill:#EC6608;" d="M164.3,76.6v6.6h-1.7
			v-2.6h-0.2c-0.2,0-0.4,0-0.5,0.1c-0.1,0-0.2,0.1-0.2,0.2c-0.1,0.1-0.1,0.2-0.2,0.3c0,0.1-0.1,0.2-0.1,0.4
			c-0.1,0.2-0.1,0.3-0.1,0.4s-0.1,0.2-0.1,0.4c0,0.2-0.1,0.3-0.1,0.4c-0.1,0.2-0.1,0.4-0.2,0.5h-1.8c0.1-0.2,0.3-0.5,0.3-0.7
			c0-0.1,0.1-0.2,0.1-0.4c0.1-0.2,0.1-0.3,0.1-0.4s0.1-0.2,0.1-0.4c0.1-0.2,0.1-0.3,0.2-0.4c0.1-0.1,0.2-0.2,0.2-0.3
			c0.2-0.2,0.5-0.4,0.8-0.5l0,0c-0.5-0.1-0.8-0.3-1.1-0.5c-0.3-0.3-0.4-0.6-0.4-1.1c0-0.6,0.3-1.1,0.8-1.4s1.2-0.5,2.2-0.5
			C163.2,76.5,163.8,76.5,164.3,76.6 M162.6,79.5v-1.8c-0.1,0-0.2,0-0.4,0c-0.3,0-0.5,0.1-0.7,0.2c-0.2,0.2-0.3,0.4-0.3,0.7
			s0.1,0.5,0.3,0.7s0.5,0.3,0.8,0.3C162.4,79.5,162.5,79.5,162.6,79.5"/>
	</g>
	<g>
		<defs>
			<rect id="SVGID_00000170989607724853725420000015748741956917714360_" x="-0.1" y="0.6" width="197.3" height="84.2"/>
		</defs>
		<clipPath id="SVGID_00000101072220127080273700000013028224411811614112_">
			<use xlink:href="#SVGID_00000170989607724853725420000015748741956917714360_"  style="overflow:visible;"/>
		</clipPath>
		<polygon style="clip-path:url(#SVGID_00000101072220127080273700000013028224411811614112_);fill:#EC6608;" points="167.4,76.5 
			169.1,76.5 169.1,81.7 170.5,81.7 170.5,76.5 172.3,76.5 172.3,81.9 172.9,81.9 172.8,85 171.5,85 171.4,83.2 167.4,83.2 		"/>
	</g>
	<g>
		<defs>
			<rect id="SVGID_00000067957048218448258810000005639453020250358926_" x="-0.1" y="0.6" width="197.3" height="84.2"/>
		</defs>
		<clipPath id="SVGID_00000181783454835206905900000003462957764730007993_">
			<use xlink:href="#SVGID_00000067957048218448258810000005639453020250358926_"  style="overflow:visible;"/>
		</clipPath>
		<path style="clip-path:url(#SVGID_00000181783454835206905900000003462957764730007993_);fill:#EC6608;" d="M175.6,76.5h1.6V78
			c0,1.1,0,2.1-0.1,3l0,0c0.2-0.5,0.4-1.1,0.7-2l1-2.5h1.7v6.6h-1.6v-1.4c0-0.6,0-1.6,0.1-3l0,0c-0.2,0.8-0.5,1.4-0.7,1.9
			c-0.4,1-0.8,1.9-1.1,2.5h-1.7v-6.6H175.6z"/>
	</g>
	<g>
		<defs>
			<rect id="SVGID_00000065076374971959716700000001164836895691703226_" x="-0.1" y="0.6" width="197.3" height="84.2"/>
		</defs>
		<clipPath id="SVGID_00000098936345902687087670000008821437646280257726_">
			<use xlink:href="#SVGID_00000065076374971959716700000001164836895691703226_"  style="overflow:visible;"/>
		</clipPath>
		<path style="clip-path:url(#SVGID_00000098936345902687087670000008821437646280257726_);fill:#EC6608;" d="M188.2,76.6v6.6h-1.7
			v-2.6h-0.2c-0.2,0-0.4,0-0.5,0.1c-0.1,0-0.2,0.1-0.2,0.2c-0.1,0.1-0.1,0.2-0.2,0.3c0,0.1-0.1,0.2-0.1,0.4
			c-0.1,0.2-0.1,0.3-0.1,0.4s-0.1,0.2-0.1,0.4c0,0.2-0.1,0.3-0.1,0.4c-0.1,0.2-0.1,0.4-0.2,0.5H183c0.1-0.2,0.3-0.5,0.3-0.7
			c0-0.1,0.1-0.2,0.1-0.4c0.1-0.2,0.1-0.3,0.1-0.4s0.1-0.2,0.1-0.4c0.1-0.2,0.1-0.3,0.2-0.4c0.1-0.1,0.2-0.2,0.2-0.3
			c0.2-0.2,0.5-0.4,0.8-0.5l0,0c-0.5-0.1-0.8-0.3-1.1-0.5c-0.3-0.3-0.4-0.6-0.4-1.1c0-0.6,0.3-1.1,0.8-1.4s1.2-0.5,2.2-0.5
			C187.2,76.5,187.8,76.5,188.2,76.6 M186.5,79.5v-1.8c-0.1,0-0.2,0-0.4,0c-0.3,0-0.5,0.1-0.7,0.2c-0.2,0.2-0.3,0.4-0.3,0.7
			s0.1,0.5,0.3,0.7s0.5,0.3,0.8,0.3C186.4,79.5,186.5,79.5,186.5,79.5"/>
	</g>
	<g>
		<defs>
			<rect id="SVGID_00000144331044031465871580000009347389971993405886_" x="-0.1" y="0.6" width="197.3" height="84.2"/>
		</defs>
		<clipPath id="SVGID_00000067235766732846533480000004901117690767148177_">
			<use xlink:href="#SVGID_00000144331044031465871580000009347389971993405886_"  style="overflow:visible;"/>
		</clipPath>
		<path style="clip-path:url(#SVGID_00000067235766732846533480000004901117690767148177_);fill:#EC6608;" d="M137.4,50.4
			c-4.9,0-7.2,2-8.3,4.8h4c0.6-1.6,1.6-2.1,2.9-2.1c2,0,3.1,1.5,3.4,4.8h-5.7v2.6h5.8c-0.1,4.2-1.3,6.1-3.5,6.1
			c-1.3,0-2.4-0.6-3-2.5h-4c1,2.9,3.3,5.1,8.4,5.1c6,0,9-4.6,9-9.4S143.4,50.4,137.4,50.4"/>
	</g>
	<g>
		<defs>
			<rect id="SVGID_00000015332386592763757740000017014691167902213532_" x="-0.1" y="0.6" width="197.3" height="84.2"/>
		</defs>
		<clipPath id="SVGID_00000053539716439444230320000008560454198585894050_">
			<use xlink:href="#SVGID_00000015332386592763757740000017014691167902213532_"  style="overflow:visible;"/>
		</clipPath>
		<path style="clip-path:url(#SVGID_00000053539716439444230320000008560454198585894050_);fill:#EC6608;" d="M118.1,50.8h-5
			l-7.5,17.9h2.8l6.2-14.6l5.7,12.8c0.6,1.2,2.2,1.9,4,1.9h3.8L120.6,52C120.4,51.4,119.5,50.8,118.1,50.8"/>
	</g>
	<g>
		<defs>
			<rect id="SVGID_00000160158696059064970710000000759005228658623930_" x="-0.1" y="0.6" width="197.3" height="84.2"/>
		</defs>
		<clipPath id="SVGID_00000057870092170188106340000013443086010359669649_">
			<use xlink:href="#SVGID_00000160158696059064970710000000759005228658623930_"  style="overflow:visible;"/>
		</clipPath>
		<path style="clip-path:url(#SVGID_00000057870092170188106340000013443086010359669649_);fill:#EC6608;" d="M72.3,50.4
			C65.5,50.4,62,55,62,59.8s3.4,9.4,10.3,9.4c6.8,0,10.3-4.6,10.3-9.4C82.6,55,79.2,50.4,72.3,50.4 M72.4,66.5
			c-2.4,0-3.6-2.1-3.6-6.8s1.2-6.8,3.6-6.8S76,55,76,59.7S74.8,66.5,72.4,66.5"/>
	</g>
	<g>
		<defs>
			<rect id="SVGID_00000106842676452676712390000005920650745865143168_" x="-0.1" y="0.6" width="197.3" height="84.2"/>
		</defs>
		<clipPath id="SVGID_00000146460234899435966950000003302473962149596062_">
			<use xlink:href="#SVGID_00000106842676452676712390000005920650745865143168_"  style="overflow:visible;"/>
		</clipPath>
		<polygon style="clip-path:url(#SVGID_00000146460234899435966950000003302473962149596062_);fill:#EC6608;" points="52.3,57.8 
			47.7,57.8 47.7,50.8 41.3,50.8 41.3,68.7 47.7,68.7 47.7,60.4 52.3,60.4 52.3,68.7 58.8,68.7 58.8,50.8 52.3,50.8 		"/>
	</g>
	<g>
		<defs>
			<rect id="SVGID_00000008146993500991465220000014107023404507209093_" x="-0.1" y="0.6" width="197.3" height="84.2"/>
		</defs>
		<clipPath id="SVGID_00000031194170793571862890000002117430073833150128_">
			<use xlink:href="#SVGID_00000008146993500991465220000014107023404507209093_"  style="overflow:visible;"/>
		</clipPath>
		<polygon style="clip-path:url(#SVGID_00000031194170793571862890000002117430073833150128_);fill:#EC6608;" points="0,50.8 
			0,68.7 6.4,68.7 6.4,53.4 11,53.4 11,68.7 17.4,68.7 17.4,50.8 		"/>
	</g>
	<g>
		<defs>
			<rect id="SVGID_00000043454682216978332790000002428885785118676381_" x="-0.1" y="0.6" width="197.3" height="84.2"/>
		</defs>
		<clipPath id="SVGID_00000167381539886386937590000003860429309750913186_">
			<use xlink:href="#SVGID_00000043454682216978332790000002428885785118676381_"  style="overflow:visible;"/>
		</clipPath>
		<path style="clip-path:url(#SVGID_00000167381539886386937590000003860429309750913186_);fill:#EC6608;" d="M22.1,50.8v13.8
			c0,2.6,2.1,4.1,5.2,4.1h10.1v-2.6h-8.9v-5.8h6.6v-2.6h-6.6v-4.4h8.9v-2.6L22.1,50.8L22.1,50.8z"/>
	</g>
	<g>
		<defs>
			<rect id="SVGID_00000044176996394403330490000000392625050071852933_" x="-0.1" y="0.6" width="197.3" height="84.2"/>
		</defs>
		<clipPath id="SVGID_00000079472504167485202940000011993034783694087858_">
			<use xlink:href="#SVGID_00000044176996394403330490000000392625050071852933_"  style="overflow:visible;"/>
		</clipPath>
		<polygon style="clip-path:url(#SVGID_00000079472504167485202940000011993034783694087858_);fill:#EC6608;" points="86,50.8 
			86,68.7 92.4,68.7 92.4,53.4 97,53.4 97,68.7 103.5,68.7 103.5,50.8 		"/>
	</g>
	<g>
		<defs>
			<rect id="SVGID_00000098213080590424589460000002883557885260297146_" x="-0.1" y="0.6" width="197.3" height="84.2"/>
		</defs>
		<clipPath id="SVGID_00000178887469119353149720000009461253740619154342_">
			<use xlink:href="#SVGID_00000098213080590424589460000002883557885260297146_"  style="overflow:visible;"/>
		</clipPath>
		<path style="clip-path:url(#SVGID_00000178887469119353149720000009461253740619154342_);fill:#EC6608;" d="M181.6,66.5
			c-2.3,0-3.5-2.1-3.5-6.8s1.2-6.8,3.5-6.8c1.4,0,2.5,0.8,3,3h4.1c-0.9-3.2-3.2-5.6-8.6-5.6c-6,0-9,4.6-9,9.4s3,9.4,9,9.4
			c5.4,0,7.7-2.4,8.6-5.6h-4.1C184,65.8,183,66.5,181.6,66.5"/>
	</g>
	<g>
		<defs>
			<rect id="SVGID_00000039829099653643459700000013447813685511935651_" x="-0.1" y="0.6" width="197.3" height="84.2"/>
		</defs>
		<clipPath id="SVGID_00000055680133875379161710000002601476385370866570_">
			<use xlink:href="#SVGID_00000039829099653643459700000013447813685511935651_"  style="overflow:visible;"/>
		</clipPath>
		<path style="clip-path:url(#SVGID_00000055680133875379161710000002601476385370866570_);fill:#EC6608;" d="M194.3,56.8
			c-1.6,0-3-1.3-3-3s1.3-3,3-3s3,1.3,3,3C197.2,55.5,195.9,56.8,194.3,56.8 M194.3,51.3c-1.4,0-2.5,1.1-2.5,2.5s1.1,2.5,2.5,2.5
			s2.5-1.1,2.5-2.5S195.6,51.3,194.3,51.3 M195.1,55.5l-0.9-1.3h-0.5v1.3h-0.5v-3.4h1.4c0.6,0,1.2,0.4,1.2,1c0,0.8-0.7,1-0.9,1
			l0.9,1.4H195.1z M194.5,52.5h-0.9v1.2h0.9c0.3,0,0.6-0.2,0.6-0.6C195.1,52.8,194.8,52.5,194.5,52.5"/>
	</g>
	<g>
		<defs>
			<rect id="SVGID_00000132799230881238053460000010179591109251744155_" x="-0.1" y="0.6" width="197.3" height="84.2"/>
		</defs>
		<clipPath id="SVGID_00000063624467024447931030000012056895689327531158_">
			<use xlink:href="#SVGID_00000132799230881238053460000010179591109251744155_"  style="overflow:visible;"/>
		</clipPath>
		<path style="clip-path:url(#SVGID_00000063624467024447931030000012056895689327531158_);fill:#EC6608;" d="M161.4,56.4l4.8-5.5
			h-3.4l-6.8,7.7v-7.7h-6.4l0,0v17.9h6.4v-9l5.7,6.7c1.5,1.6,3.4,2.3,5.8,2.3h4.3L161.4,56.4z"/>
	</g>
</g>
</svg>
